<svg id="Layer_1" data-name="Layer 1" xmlns="http://www.w3.org/2000/svg" viewBox="0 0 1014 1014" style=""><defs><style>.cls-1,.cls-2{fill:none;}.cls-1{stroke:#f2f2f2;stroke-miterlimit:10;stroke-width:4px;}.cls-3{fill:#ff9000;}</style></defs><title>111Artboard 1 copy 2</title><path class="cls-1 cMkAyKHS_0" d="M361.73,836.6c34.71,76,123.15,105.79,243.33,82.64-155,4.14-204.48-61.16-202.83-90.91,18.19,24.8,135.82,45.18,193.12,19.29-111.3,12.12-174.67-49-180.72-122.87,0,0,61.29,86.64,140.09,83.33-189.55-58.41,40.08-246.7-35.41-332.38,61.16,1.1,4.41,111.3,25.51,134.62C540.14,535.94,711.06,475.7,667,382c60.61,67.77-101.93,194.5-23.14,267.78-23.42-35.95,2.2-89.26,29.66-141-39.75,92.57-13.68,132.79,4,146-49.89-85.4,48.37-150.5,77.75-255.8,23.62-84.68-57.09-145.87-99.24-162.4C735.85,220,756.79,152.27,757.62,125,604.72-25.43,108.83,47.29,24.53,463-45.07,895.9,343.55,886.19,361.73,836.6ZM268.07,277.34C384.53,161,580.75,155.57,670,176.23c-147.11-6.61-279.66,23.61-325.15,70.54,133.43,11.3,172.63,130.41,151.31,177.37C499.48,293.25,390.44,245.58,268.07,277.34Z"></path><path class="cls-2 cMkAyKHS_1" d="M919.18,655C902,702.52,724.3,584.72,823,834.86c-73.79-244.94,89.26-113.59,108.78-166.59,17.48-47.45-19-124.76-39.56-153.66C905.87,549.22,937.06,605.51,919.18,655Z"></path><path class="cls-3 cMkAyKHS_2" d="M982.4,734.24c-8.34-12.51-3.76-26.68-1-37.39,7.23-27.82,3.81-42.53-8.62-50.31-1.67,8.68-3.75,36.21-1.88,43.71-.18,3.58-8.13,1-8.13,1-.8-23,4.17-44.61,13.34-73.81,7.13-22.67-1.66-31.27-16.68-53.37-2.77,6-8.61,16.26-20,13.76-2.17-1.74-2-5-2-5,12.24-2.78,17.8-14.89,35.59-48.37,12.4-23.34,28.35-21.69,18.34-55.61-8.43-28.58-79.26-50.46-99-76.72-6.22-8.28,3-19.46,3.61-30.31,3-57.56-59.21-166-120.93-226,0,0-21.13,85.06-75.61,98.41C892.47,392.17,684,491.14,684,617.07c14-68.39,71.59-106.34,82-154.71,16.68,64.22-79.41,138-56.8,205.58-6.77-35.3,42.9-116.2,52.63-123.43C774,604.56,705.34,657.67,722,700.2c-7.54-20.56,38.12-85.63,48.37-92.3,19.78,71.71-52.92,95.9-47.78,146.78,0,0-6.26-16.27-6.67-33.36-21.27-1.26-32.53,35.86-25.86,60,18.75,15.85,35.61,85.89-10.78,80.39a58.54,58.54,0,0,0,7.93,20,40.32,40.32,0,0,0,2.75,4c1.23,1.58,2,2.43,2,2.43,4.87,5.85,12,9.87,19.69,12.62l.44.16.06,0c8.91,3.23,19.34,4.95,30.83,5.45a134.77,134.77,0,0,0,13.61.07h0c47.76-1.49,109-19.75,156.38-36.72,48.7-17.44,71.86-18.35,84-51.29S990.74,746.75,982.4,734.24Zm-50.67-66c-19.52,53-182.57-78.35-108.78,166.59C724.3,584.72,902,702.52,919.18,655c17.88-49.45-13.31-105.74-27-140.35C912.71,543.51,949.21,620.82,931.73,668.27Z"></path><path class="cls-1 cMkAyKHS_3" d="M667.87,825.51c3.36,15.27,12.58,26.22,20.6,24.46s11.81-15.58,8.46-30.85-12.58-26.22-20.6-24.46S664.52,810.23,667.87,825.51Z"></path><style data-made-with="vivus-instant">.cMkAyKHS_0{stroke-dasharray:6138 6140;stroke-dashoffset:6139;animation:cMkAyKHS_draw_0 11000ms linear 0ms infinite,cMkAyKHS_fade 11000ms linear 0ms infinite;}.cMkAyKHS_1{stroke-dasharray:867 869;stroke-dashoffset:868;animation:cMkAyKHS_draw_1 11000ms linear 0ms infinite,cMkAyKHS_fade 11000ms linear 0ms infinite;}.cMkAyKHS_2{stroke-dasharray:3915 3917;stroke-dashoffset:3916;animation:cMkAyKHS_draw_2 11000ms linear 0ms infinite,cMkAyKHS_fade 11000ms linear 0ms infinite;}.cMkAyKHS_3{stroke-dasharray:140 142;stroke-dashoffset:141;animation:cMkAyKHS_draw_3 11000ms linear 0ms infinite,cMkAyKHS_fade 11000ms linear 0ms infinite;}@keyframes cMkAyKHS_draw{100%{stroke-dashoffset:0;}}@keyframes cMkAyKHS_fade{0%{stroke-opacity:1;}72.72727272727273%{stroke-opacity:1;}100%{stroke-opacity:0;}}@keyframes cMkAyKHS_draw_0{0%{stroke-dashoffset: 6139}72.72727272727273%{ stroke-dashoffset: 0;}100%{ stroke-dashoffset: 0;}}@keyframes cMkAyKHS_draw_1{0%{stroke-dashoffset: 868}72.72727272727273%{ stroke-dashoffset: 0;}100%{ stroke-dashoffset: 0;}}@keyframes cMkAyKHS_draw_2{0%{stroke-dashoffset: 3916}72.72727272727273%{ stroke-dashoffset: 0;}100%{ stroke-dashoffset: 0;}}@keyframes cMkAyKHS_draw_3{0%{stroke-dashoffset: 141}72.72727272727273%{ stroke-dashoffset: 0;}100%{ stroke-dashoffset: 0;}}</style></svg>